<svg width="24" height="25" viewBox="0 0 24 25" fill="none" xmlns="http://www.w3.org/2000/svg">
<mask id="mask0_190_957" style="mask-type:alpha" maskUnits="userSpaceOnUse" x="0" y="0" width="24" height="25">
<rect y="0.5" width="24" height="24" fill="#D9D9D9"/>
</mask>
<g mask="url(#mask0_190_957)">
<path d="M12 22.5001C10.75 22.5001 9.57931 22.2628 8.48798 21.7881C7.39598 21.3128 6.44598 20.6708 5.63798 19.8621C4.82931 19.0541 4.18731 18.1041 3.71198 17.0121C3.23731 15.9208 2.99998 14.7501 2.99998 13.5001C2.99998 12.2501 3.23731 11.0791 3.71198 9.9871C4.18731 8.89576 4.82931 7.94576 5.63798 7.1371C6.44598 6.3291 7.39598 5.68776 8.48798 5.2131C9.57931 4.73776 10.75 4.5001 12 4.5001C13.25 4.5001 14.421 4.73776 15.513 5.2131C16.6043 5.68776 17.5543 6.3291 18.363 7.1371C19.171 7.94576 19.8126 8.89576 20.288 9.9871C20.7626 11.0791 21 12.2501 21 13.5001C21 14.7501 20.7626 15.9208 20.288 17.0121C19.8126 18.1041 19.171 19.0541 18.363 19.8621C17.5543 20.6708 16.6043 21.3128 15.513 21.7881C14.421 22.2628 13.25 22.5001 12 22.5001ZM14.8 17.7001L16.2 16.3001L13 13.1001V8.5001H11V13.9001L14.8 17.7001ZM5.59998 2.8501L6.99998 4.2501L2.74998 8.5001L1.34998 7.1001L5.59998 2.8501ZM18.4 2.8501L22.65 7.1001L21.25 8.5001L17 4.2501L18.4 2.8501ZM12 20.5001C13.95 20.5001 15.604 19.8208 16.962 18.4621C18.3206 17.1041 19 15.4501 19 13.5001C19 11.5501 18.3206 9.89576 16.962 8.5371C15.604 7.1791 13.95 6.5001 12 6.5001C10.05 6.5001 8.39598 7.1791 7.03798 8.5371C5.67931 9.89576 4.99998 11.5501 4.99998 13.5001C4.99998 15.4501 5.67931 17.1041 7.03798 18.4621C8.39598 19.8208 10.05 20.5001 12 20.5001Z" fill="url(#paint0_linear_190_957)"/>
</g>
<defs>
<linearGradient id="paint0_linear_190_957" x1="22.65" y1="2.8501" x2="-1.58732" y2="17.7088" gradientUnits="userSpaceOnUse">
<stop stop-color="#0054F7"/>
<stop offset="1" stop-color="#FF00E5"/>
</linearGradient>
</defs>
</svg>
