<svg width="24" height="25" viewBox="0 0 24 25" fill="none" xmlns="http://www.w3.org/2000/svg">
<mask id="mask0_190_967" style="mask-type:alpha" maskUnits="userSpaceOnUse" x="0" y="0" width="24" height="25">
<rect y="0.5" width="24" height="24" fill="#D9D9D9"/>
</mask>
<g mask="url(#mask0_190_967)">
<path d="M11.95 18.5C12.3 18.5 12.596 18.379 12.838 18.137C13.0793 17.8957 13.2 17.6 13.2 17.25C13.2 16.9 13.0793 16.6043 12.838 16.363C12.596 16.121 12.3 16 11.95 16C11.6 16 11.304 16.121 11.062 16.363C10.8207 16.6043 10.7 16.9 10.7 17.25C10.7 17.6 10.8207 17.8957 11.062 18.137C11.304 18.379 11.6 18.5 11.95 18.5ZM11.05 14.65H12.9C12.9 14.1 12.9627 13.6667 13.088 13.35C13.2127 13.0333 13.5667 12.6 14.15 12.05C14.5833 11.6167 14.925 11.204 15.175 10.812C15.425 10.4207 15.55 9.95 15.55 9.4C15.55 8.46667 15.2083 7.75 14.525 7.25C13.8417 6.75 13.0333 6.5 12.1 6.5C11.15 6.5 10.3793 6.75 9.788 7.25C9.196 7.75 8.78333 8.35 8.55 9.05L10.2 9.7C10.2833 9.4 10.471 9.075 10.763 8.725C11.0543 8.375 11.5 8.2 12.1 8.2C12.6333 8.2 13.0333 8.34567 13.3 8.637C13.5667 8.929 13.7 9.25 13.7 9.6C13.7 9.93333 13.6 10.2457 13.4 10.537C13.2 10.829 12.95 11.1 12.65 11.35C11.9167 12 11.4667 12.4917 11.3 12.825C11.1333 13.1583 11.05 13.7667 11.05 14.65ZM12 22.5C10.6167 22.5 9.31667 22.2373 8.1 21.712C6.88333 21.1873 5.825 20.475 4.925 19.575C4.025 18.675 3.31267 17.6167 2.788 16.4C2.26267 15.1833 2 13.8833 2 12.5C2 11.1167 2.26267 9.81667 2.788 8.6C3.31267 7.38333 4.025 6.325 4.925 5.425C5.825 4.525 6.88333 3.81233 8.1 3.287C9.31667 2.76233 10.6167 2.5 12 2.5C13.3833 2.5 14.6833 2.76233 15.9 3.287C17.1167 3.81233 18.175 4.525 19.075 5.425C19.975 6.325 20.6873 7.38333 21.212 8.6C21.7373 9.81667 22 11.1167 22 12.5C22 13.8833 21.7373 15.1833 21.212 16.4C20.6873 17.6167 19.975 18.675 19.075 19.575C18.175 20.475 17.1167 21.1873 15.9 21.712C14.6833 22.2373 13.3833 22.5 12 22.5ZM12 20.5C14.2333 20.5 16.125 19.725 17.675 18.175C19.225 16.625 20 14.7333 20 12.5C20 10.2667 19.225 8.375 17.675 6.825C16.125 5.275 14.2333 4.5 12 4.5C9.76667 4.5 7.875 5.275 6.325 6.825C4.775 8.375 4 10.2667 4 12.5C4 14.7333 4.775 16.625 6.325 18.175C7.875 19.725 9.76667 20.5 12 20.5Z" fill="url(#paint0_linear_190_967)"/>
</g>
<defs>
<linearGradient id="paint0_linear_190_967" x1="22" y1="2.5" x2="-1.72314" y2="15.9169" gradientUnits="userSpaceOnUse">
<stop stop-color="#0054F7"/>
<stop offset="1" stop-color="#FF00E5"/>
</linearGradient>
</defs>
</svg>
