<svg width="14" height="15" viewBox="0 0 14 15" fill="none" xmlns="http://www.w3.org/2000/svg">
<path fill-rule="evenodd" clip-rule="evenodd" d="M3 14.5952H0V5.59521H3V14.5952Z" fill="white"/>
<path fill-rule="evenodd" clip-rule="evenodd" d="M1.49108 3.59521H1.47404C0.578773 3.59521 0 2.92824 0 2.0947C0 1.24352 0.5964 0.595215 1.50865 0.595215C2.42091 0.595215 2.98269 1.24352 3 2.0947C3 2.92824 2.42091 3.59521 1.49108 3.59521Z" fill="white"/>
<path fill-rule="evenodd" clip-rule="evenodd" d="M13.9999 14.595H11.0519V9.89057C11.0519 8.70892 10.6253 7.9026 9.55814 7.9026C8.74368 7.9026 8.25855 8.44618 8.04549 8.9712C7.96754 9.15936 7.94841 9.42152 7.94841 9.68432V14.5952H5C5 14.5952 5.03886 6.62705 5 5.80193H7.94841V7.04743C8.33968 6.44869 9.04046 5.59521 10.6057 5.59521C12.5456 5.59521 14 6.85227 14 9.55318L13.9999 14.595Z" fill="white"/>
</svg>
