<svg width="24" height="23" viewBox="0 0 24 23" fill="none" xmlns="http://www.w3.org/2000/svg">
<mask id="mask0_103_84" style="mask-type:alpha" maskUnits="userSpaceOnUse" x="0" y="0" width="24" height="23">
<rect x="0.97583" y="0.0283203" width="22.4503" height="22.4503" fill="white"/>
</mask>
<g mask="url(#mask0_103_84)">
<path d="M4.71711 18.7371C4.20262 18.7371 3.76235 18.5541 3.39628 18.188C3.0296 17.8213 2.84625 17.3807 2.84625 16.8663V5.64112C2.84625 5.12663 3.0296 4.68636 3.39628 4.32029C3.76235 3.95361 4.20262 3.77026 4.71711 3.77026H19.6839C20.1984 3.77026 20.639 3.95361 21.0057 4.32029C21.3718 4.68636 21.5548 5.12663 21.5548 5.64112V16.8663C21.5548 17.3807 21.3718 17.8213 21.0057 18.188C20.639 18.5541 20.1984 18.7371 19.6839 18.7371H4.71711ZM12.2005 12.1891L4.71711 7.51197V16.8663H19.6839V7.51197L12.2005 12.1891ZM12.2005 10.3183L19.6839 5.64112H4.71711L12.2005 10.3183ZM4.71711 7.51197V5.64112V16.8663V7.51197Z" fill="white"/>
</g>
</svg>
