<svg width="24" height="23" viewBox="0 0 24 23" fill="none" xmlns="http://www.w3.org/2000/svg">
<mask id="mask0_103_77" style="mask-type:alpha" maskUnits="userSpaceOnUse" x="0" y="0" width="24" height="23">
<rect x="0.97583" y="0.0725098" width="22.4503" height="22.4503" fill="white"/>
</mask>
<g mask="url(#mask0_103_77)">
<path d="M19.6373 19.7173C17.6261 19.7173 15.6658 19.269 13.7563 18.3722C11.8461 17.4761 10.1546 16.2912 8.68157 14.8176C7.20796 13.3446 6.02308 11.653 5.12694 9.74287C4.23018 7.83335 3.7818 5.87301 3.7818 3.86184C3.7818 3.58121 3.87534 3.34735 4.06243 3.16027C4.24951 2.97318 4.48337 2.87964 4.764 2.87964H8.55248C8.77075 2.87964 8.96563 2.9498 9.13712 3.09011C9.30862 3.23042 9.40996 3.40971 9.44114 3.62798L10.0492 6.90198C10.0803 7.12024 10.0766 7.31887 10.0379 7.49784C9.99865 7.67745 9.90885 7.8374 9.76854 7.97772L7.50012 10.2695C8.15492 11.392 8.97748 12.4444 9.96778 13.4266C10.9575 14.4088 12.0447 15.2585 13.2296 15.9756L15.4279 13.7774C15.5682 13.6371 15.7515 13.5317 15.9779 13.4612C16.2037 13.3913 16.4257 13.372 16.6439 13.4032L19.8712 14.058C20.0894 14.1048 20.2687 14.2098 20.409 14.3732C20.5493 14.5372 20.6195 14.7284 20.6195 14.9467V18.7351C20.6195 19.0158 20.526 19.2496 20.3389 19.4367C20.1518 19.6238 19.9179 19.7173 19.6373 19.7173ZM6.61147 8.4922L8.15492 6.94875L7.75737 4.75049H5.67604C5.75399 5.3897 5.86313 6.02112 6.00344 6.64473C6.14375 7.26835 6.34643 7.88418 6.61147 8.4922ZM18.7486 17.7997V15.7418L16.5504 15.2974L14.9835 16.8643C15.5916 17.1293 16.2114 17.3398 16.8432 17.4957C17.4743 17.6516 18.1094 17.7529 18.7486 17.7997Z" fill="white"/>
</g>
</svg>
