<svg width="13" height="12" viewBox="0 0 13 12" fill="none" xmlns="http://www.w3.org/2000/svg">
<path fill-rule="evenodd" clip-rule="evenodd" d="M6.31224 3.52139L6.34042 3.99717L5.87076 3.93891C4.16119 3.71558 2.66767 2.95822 1.39959 1.68623L0.779637 1.05509L0.619952 1.52116C0.281797 2.56012 0.497841 3.65732 1.20233 4.39527C1.57806 4.80308 1.49352 4.86134 0.84539 4.6186C0.619952 4.54092 0.422695 4.48266 0.403908 4.51179C0.338156 4.57976 0.563593 5.46335 0.742064 5.8129C0.986288 6.29839 1.48413 6.77418 2.02893 7.05576L2.4892 7.27909L1.9444 7.2888C1.41838 7.2888 1.39959 7.29851 1.45595 7.50241C1.64381 8.13355 2.38588 8.80353 3.21248 9.09482L3.79486 9.29873L3.28763 9.60944C2.53617 10.0561 1.65321 10.3085 0.770244 10.328C0.347549 10.3377 0 10.3765 0 10.4056C0 10.5027 1.14597 11.0465 1.81289 11.2601C3.81365 11.8912 6.19013 11.6194 7.97484 10.5416C9.24293 9.77451 10.511 8.25007 11.1028 6.77418C11.4222 5.98768 11.7415 4.55063 11.7415 3.86123C11.7415 3.41458 11.7697 3.35632 12.2957 2.82228C12.6057 2.51157 12.8969 2.17172 12.9532 2.07462C13.0472 1.89014 13.0378 1.89014 12.5587 2.0552C11.7603 2.3465 11.6476 2.30766 12.0421 1.87072C12.3333 1.56 12.6808 0.996835 12.6808 0.831768C12.6808 0.802639 12.5399 0.851188 12.3803 0.938576C12.2112 1.03567 11.8355 1.18132 11.5537 1.26871L11.0464 1.43378L10.5862 1.11335C10.3325 0.938576 9.9756 0.74438 9.78773 0.686121C9.30868 0.550183 8.57601 0.569603 8.14392 0.72496C6.96977 1.1619 6.2277 2.28824 6.31224 3.52139Z" fill="white"/>
</svg>
