<svg width="70" height="70" viewBox="0 0 70 70" fill="none" xmlns="http://www.w3.org/2000/svg">
<path d="M18.5938 53.5938C23.1242 53.5938 26.7969 49.9211 26.7969 45.3906C26.7969 40.8602 23.1242 37.1875 18.5938 37.1875C14.0633 37.1875 10.3906 40.8602 10.3906 45.3906C10.3906 49.9211 14.0633 53.5938 18.5938 53.5938Z" fill="white"/>
<path d="M4.23828 67.9492C4.23828 69.0828 5.15553 70 6.28906 70H30.8984C32.032 70 32.9492 69.0828 32.9492 67.9492C32.9492 60.0344 26.5085 53.5938 18.5938 53.5938C10.679 53.5938 4.23828 60.0344 4.23828 67.9492Z" fill="white"/>
<path d="M51.4062 53.5938C55.9367 53.5938 59.6094 49.9211 59.6094 45.3906C59.6094 40.8602 55.9367 37.1875 51.4062 37.1875C46.8758 37.1875 43.2031 40.8602 43.2031 45.3906C43.2031 49.9211 46.8758 53.5938 51.4062 53.5938Z" fill="white"/>
<path d="M37.0508 67.9492C37.0508 69.0828 37.968 70 39.1016 70H63.7109C64.8445 70 65.7617 69.0828 65.7617 67.9492C65.7617 60.0344 59.321 53.5938 51.4062 53.5938C43.4915 53.5938 37.0508 60.0344 37.0508 67.9492Z" fill="white"/>
<path d="M63.8477 0H6.15234C2.7598 0 0 2.7598 0 6.15234V22.5586C0 25.9511 2.7598 28.7109 6.15234 28.7109H13.5063L17.007 32.2116C17.808 33.0127 19.1059 33.0127 19.9069 32.2116L23.4078 28.7109H46.5922L50.0929 32.2116C50.894 33.0127 52.1917 33.0128 52.9929 32.2116L56.4937 28.7109H63.8477C67.2402 28.7109 70 25.9511 70 22.5586V6.15234C70 2.7598 67.2402 0 63.8477 0ZM26.6602 20.5078H10.2539C9.12037 20.5078 8.20312 19.5906 8.20312 18.457C8.20312 17.3235 9.12037 16.4062 10.2539 16.4062H26.6602C27.7937 16.4062 28.7109 17.3235 28.7109 18.457C28.7109 19.5906 27.7937 20.5078 26.6602 20.5078ZM26.6602 12.3047H10.2539C9.12037 12.3047 8.20312 11.3874 8.20312 10.2539C8.20312 9.12037 9.12037 8.20312 10.2539 8.20312H26.6602C27.7937 8.20312 28.7109 9.12037 28.7109 10.2539C28.7109 11.3874 27.7937 12.3047 26.6602 12.3047ZM59.7461 20.5078H43.3398C42.2063 20.5078 41.2891 19.5906 41.2891 18.457C41.2891 17.3235 42.2063 16.4062 43.3398 16.4062H59.7461C60.8796 16.4062 61.7969 17.3235 61.7969 18.457C61.7969 19.5906 60.8796 20.5078 59.7461 20.5078ZM59.7461 12.3047H43.3398C42.2063 12.3047 41.2891 11.3874 41.2891 10.2539C41.2891 9.12037 42.2063 8.20312 43.3398 8.20312H59.7461C60.8796 8.20312 61.7969 9.12037 61.7969 10.2539C61.7969 11.3874 60.8796 12.3047 59.7461 12.3047Z" fill="white"/>
</svg>
