<svg width="71" height="70" viewBox="0 0 71 70" fill="none" xmlns="http://www.w3.org/2000/svg">
<path d="M22.8919 41.1523C21.7605 41.1523 20.8412 42.0716 20.8412 43.2031C20.8412 44.3346 21.7605 45.2539 22.8919 45.2539C24.0234 45.2539 24.9427 44.3346 24.9427 43.2031C24.9427 42.0716 24.0234 41.1523 22.8919 41.1523Z" fill="white"/>
<path d="M39.2982 28.8477H6.48569C3.09315 28.8477 0.333344 31.6075 0.333344 35V59.6094C0.333344 63.0019 3.09315 65.7617 6.48569 65.7617H39.2982C42.6907 65.7617 45.4505 63.0019 45.4505 59.6094V35C45.4505 31.6075 42.6907 28.8477 39.2982 28.8477ZM24.9427 48.9777V55.5078C24.9427 56.6413 24.0255 57.5586 22.8919 57.5586C21.7584 57.5586 20.8412 56.6413 20.8412 55.5078V48.9777C18.4592 48.1283 16.7396 45.8732 16.7396 43.2031C16.7396 39.8106 19.4994 37.0508 22.8919 37.0508C26.2845 37.0508 29.0443 39.8106 29.0443 43.2031C29.0443 45.8732 27.3246 48.1283 24.9427 48.9777Z" fill="white"/>
<path d="M64.181 41.1523C61.5109 41.1523 59.2558 42.872 58.4064 45.2539H49.5521V49.3555H58.4064C59.2558 51.7374 61.5109 53.457 64.181 53.457C67.5735 53.457 70.3333 50.6972 70.3333 47.3047C70.3333 43.9121 67.5735 41.1523 64.181 41.1523Z" fill="white"/>
<path d="M64.181 57.5586C63.057 57.5586 62.0166 57.8838 61.1088 58.4123L57.5459 54.186C57.1554 53.7234 56.5827 53.457 55.9779 53.457H49.5521V57.5586H55.0245L58.4269 61.5945C58.1823 62.2572 58.0287 62.9642 58.0287 63.7109C58.0287 67.1035 60.7885 70 64.181 70C67.5735 70 70.3333 67.1035 70.3333 63.7109C70.3333 60.3184 67.5735 57.5586 64.181 57.5586Z" fill="white"/>
<path d="M64.181 24.7461C60.7885 24.7461 58.0287 27.5059 58.0287 30.8984C58.0287 31.8946 58.289 32.8221 58.7109 33.6552L55.1547 37.0508H49.5521V41.1523H55.9779C56.5047 41.1523 57.0132 40.9481 57.3937 40.5836L61.6673 36.5008C62.4366 36.8475 63.2839 37.0508 64.181 37.0508C67.5735 37.0508 70.3333 34.291 70.3333 30.8984C70.3333 27.5059 67.5735 24.7461 64.181 24.7461Z" fill="white"/>
<path d="M22.8919 0C13.8457 0 6.48569 7.35998 6.48569 16.4062V24.7461H14.6888V16.4062C14.6888 11.8821 18.3678 8.20312 22.8919 8.20312C27.4161 8.20312 31.0951 11.8821 31.0951 16.4062V24.7461H39.2982V16.4062C39.2982 7.35998 31.9382 0 22.8919 0Z" fill="white"/>
</svg>
