<svg width="79" height="70" viewBox="0 0 79 70" fill="none" xmlns="http://www.w3.org/2000/svg">
<path d="M68.6106 50.3884L78.3623 40.6374L68.6106 30.8858L70.1818 29.3146C72.9002 26.5962 72.9002 22.1732 70.1824 19.4548C68.8653 18.1383 67.1142 17.4131 65.2519 17.4131C63.3901 17.4131 61.639 18.1383 60.3225 19.4548L58.7514 21.0259L48.9997 11.2743L46.1223 14.1524V18.7009C51.2124 19.9139 55.0094 24.5001 55.0094 29.9561C55.0094 35.4127 51.2124 39.9989 46.1223 41.2114V55.3154H37.6805L35.9976 56.9983L48.9997 69.9999L58.7514 60.2483L60.1055 61.603C62.824 64.3215 67.2469 64.3215 69.9654 61.603C72.6838 58.8846 72.6838 54.4616 69.9654 51.7432L68.6106 50.3884Z" fill="white"/>
<path d="M41.5253 50.7191V36.9284H43.4402C47.2851 36.9284 50.4124 33.801 50.4124 29.9562C50.4124 26.112 47.2851 22.9846 43.4402 22.9846H41.5253V9.19383H27.7346V6.9722C27.7346 3.12739 24.6072 0 20.7624 0C16.9181 0 13.7908 3.12739 13.7908 6.9722V9.19383H0V22.9846H1.91553C5.28864 22.9846 8.10932 25.3922 8.75023 28.5793C9.02823 28.9679 9.19384 29.4426 9.19384 29.9562C9.19384 30.4697 9.02823 30.9444 8.75023 31.3336C8.10932 34.5202 5.28864 36.9284 1.91553 36.9284H0V50.7191H13.7908V48.4969C13.7908 44.6527 16.9181 41.5253 20.7624 41.5253C24.6072 41.5253 27.7346 44.6527 27.7346 48.4969V50.7191H41.5253Z" fill="white"/>
</svg>
