<svg width="58" height="70" viewBox="0 0 58 70" fill="none" xmlns="http://www.w3.org/2000/svg">
<path fill-rule="evenodd" clip-rule="evenodd" d="M48.6898 37.4302H9.20879C4.49368 37.4302 0.666687 33.5871 0.666687 28.872C0.666687 26.2722 1.81317 23.8501 3.79933 22.2353C3.42793 21.2503 3.21801 20.2007 3.21801 19.1349C3.21801 15.5502 5.43024 12.4014 8.69206 11.1419C8.67591 10.8997 8.65977 10.6574 8.65977 10.4152C8.65977 4.68281 13.3426 0 19.075 0C24.0485 0 28.2468 3.45559 29.2642 8.203C31.4441 8.26759 33.4302 9.36563 34.6575 11.1096C36.0785 10.3022 37.6609 9.86621 39.3241 9.86621C44.5075 9.86621 48.722 14.0807 48.722 19.2641C48.722 19.6194 48.6898 19.9585 48.6575 20.3137H48.6898C53.4049 20.3137 57.2319 24.1569 57.2319 28.872C57.2319 33.5871 53.4049 37.4302 48.6898 37.4302Z" fill="white"/>
<path fill-rule="evenodd" clip-rule="evenodd" d="M18.6552 46.9412H8.466C7.80394 46.9412 7.27107 46.4083 7.27107 45.7463C7.27107 45.1003 7.80394 44.5675 8.466 44.5675H17.4602V36.2353C17.4602 35.5894 17.9931 35.0565 18.6552 35.0565C19.3172 35.0565 19.8501 35.5894 19.8501 36.2353V45.7463C19.8501 46.4083 19.3172 46.9412 18.6552 46.9412Z" fill="white"/>
<path fill-rule="evenodd" clip-rule="evenodd" d="M5.28491 50.1223C2.87892 50.1223 0.908905 48.1685 0.908905 45.7463C0.908905 43.3403 2.87892 41.3865 5.28491 41.3865C7.69091 41.3865 9.66092 43.3403 9.66092 45.7463C9.66092 48.1685 7.69091 50.1223 5.28491 50.1223Z" fill="white"/>
<path fill-rule="evenodd" clip-rule="evenodd" d="M49.4325 46.9412H39.2434C38.5813 46.9412 38.0484 46.4083 38.0484 45.7463V36.2353C38.0484 35.5894 38.5813 35.0565 39.2434 35.0565C39.9054 35.0565 40.4383 35.5894 40.4383 36.2353V44.5675H49.4325C50.0784 44.5675 50.6113 45.1003 50.6113 45.7463C50.6113 46.4083 50.0784 46.9412 49.4325 46.9412Z" fill="white"/>
<path fill-rule="evenodd" clip-rule="evenodd" d="M52.6136 50.1223C50.2076 50.1223 48.2376 48.1685 48.2376 45.7463C48.2376 43.3403 50.2076 41.3865 52.6136 41.3865C55.0196 41.3865 56.9735 43.3403 56.9735 45.7463C56.9735 48.1685 55.0196 50.1223 52.6136 50.1223Z" fill="white"/>
<path fill-rule="evenodd" clip-rule="evenodd" d="M23.8062 58.3737H13.6171C12.955 58.3737 12.4222 57.8408 12.4222 57.1949C12.4222 56.5329 12.955 56 13.6171 56H22.6113V36.2353C22.6113 35.5894 23.1442 35.0565 23.8062 35.0565C24.4522 35.0565 24.985 35.5894 24.985 36.2353V57.1949C24.985 57.8408 24.4522 58.3737 23.8062 58.3737Z" fill="white"/>
<path fill-rule="evenodd" clip-rule="evenodd" d="M10.436 61.5547C8.03002 61.5547 6.06001 59.6009 6.06001 57.1949C6.06001 54.7889 8.03002 52.8188 10.436 52.8188C12.842 52.8188 14.7959 54.7889 14.7959 57.1949C14.7959 59.6009 12.842 61.5547 10.436 61.5547Z" fill="white"/>
<path fill-rule="evenodd" clip-rule="evenodd" d="M44.2814 58.3737H34.0923C33.4464 58.3737 32.9135 57.8408 32.9135 57.1949V36.2353C32.9135 35.5894 33.4464 35.0565 34.0923 35.0565C34.7543 35.0565 35.2872 35.5894 35.2872 36.2353V56H44.2814C44.9435 56 45.4764 56.5329 45.4764 57.1949C45.4764 57.8408 44.9435 58.3737 44.2814 58.3737Z" fill="white"/>
<path fill-rule="evenodd" clip-rule="evenodd" d="M47.4625 61.5547C45.0565 61.5547 43.0865 59.6009 43.0865 57.1949C43.0865 54.7889 45.0565 52.8188 47.4625 52.8188C49.8685 52.8188 51.8385 54.7889 51.8385 57.1949C51.8385 59.6009 49.8685 61.5547 47.4625 61.5547Z" fill="white"/>
<path fill-rule="evenodd" clip-rule="evenodd" d="M28.9412 63.6378C28.2953 63.6378 27.7624 63.105 27.7624 62.4429V36.2353C27.7624 35.5894 28.2953 35.0565 28.9412 35.0565C29.6033 35.0565 30.1361 35.5894 30.1361 36.2353V62.4429C30.1361 63.105 29.6033 63.6378 28.9412 63.6378Z" fill="white"/>
<path fill-rule="evenodd" clip-rule="evenodd" d="M28.9412 70.0001C26.5352 70.0001 24.5813 68.0301 24.5813 65.6241C24.5813 63.2181 26.5352 61.248 28.9412 61.248C31.3633 61.248 33.3172 63.2181 33.3172 65.6241C33.3172 68.0301 31.3633 70.0001 28.9412 70.0001Z" fill="white"/>
</svg>
