<svg width="69" height="70" viewBox="0 0 69 70" fill="none" xmlns="http://www.w3.org/2000/svg">
<path d="M31.4858 59.322H42.1638V70H31.4858V59.322Z" fill="white"/>
<path d="M44.5366 59.322H55.2146V70H44.5366V59.322Z" fill="white"/>
<path d="M57.5879 70H67.0791C67.7344 70 68.2658 69.4691 68.2658 68.8138V59.322H57.5879V70Z" fill="white"/>
<path d="M44.5366 46.2714H55.2146V56.9493H44.5366V46.2714Z" fill="white"/>
<path d="M57.5879 46.2714H68.2658V56.9493H57.5879V46.2714Z" fill="white"/>
<path d="M57.5879 33.2206H68.2658V43.8985H57.5879V33.2206Z" fill="white"/>
<path d="M14.8756 56.9492C14.8756 58.2598 15.9384 59.322 17.249 59.322H18.4351V68.8138C18.4351 69.4691 18.9665 70 19.6218 70H29.1131V54.5764H17.249C15.9384 54.5764 14.8756 55.6387 14.8756 56.9492Z" fill="white"/>
<path d="M27.9269 43.8985C27.9269 45.2091 28.9891 46.2713 30.2997 46.2713H31.4859V56.9493H42.1638V41.5257H30.2997C28.9891 41.5257 27.9269 42.5879 27.9269 43.8985Z" fill="white"/>
<path d="M40.9777 30.8477C40.9777 32.1582 42.0399 33.2205 43.3505 33.2205H44.5366V43.8984H55.2145V28.4749H43.3505C42.0399 28.4749 40.9777 29.5371 40.9777 30.8477Z" fill="white"/>
<path d="M54.0284 17.7971C54.0284 19.1071 55.0906 20.1699 56.4012 20.1699H57.5879V30.8478H68.2658V15.4237H56.4012C55.0906 15.4237 54.0284 16.4865 54.0284 17.7971Z" fill="white"/>
<path d="M28.1902 15.844C28.2495 15.9033 34.2229 21.8601 35.2707 28.1487L39.9095 28.3559C40.0436 27.8437 43.1358 15.6827 35.7321 8.278L32.3745 4.92626C29.151 1.70376 24.4705 0.000119182 18.8383 0.000119182C16.6359 -0.0062895 14.4404 0.245785 12.2967 0.749935L12.5103 5.38555C18.7652 6.42856 24.7541 12.4079 24.824 12.4778L1.33248 35.9694C0.433661 36.9008 0.446478 38.3806 1.36132 39.296C2.27669 40.2114 3.7571 40.2242 4.68796 39.3249L28.1795 15.8333L28.1902 15.844Z" fill="white"/>
<path d="M44.5366 20.1697V17.7969C44.5366 17.1416 44.0057 16.6102 43.3505 16.6102C42.6952 16.6102 42.1638 17.1416 42.1638 17.7969V20.1697C42.1638 20.825 42.6952 21.3559 43.3505 21.3559C44.0057 21.3559 44.5366 20.825 44.5366 20.1697Z" fill="white"/>
<path d="M47.7484 23.3811L50.1213 21.0082C50.5709 20.5431 50.5645 19.8029 50.1068 19.3452C49.6491 18.8875 48.9095 18.8811 48.4438 19.3308L46.071 21.7036C45.7623 22.0016 45.6389 22.4427 45.7473 22.8577C45.8557 23.2721 46.1799 23.5963 46.5949 23.7047C47.0093 23.8136 47.4504 23.6897 47.7484 23.3811Z" fill="white"/>
<path d="M35.7012 30.9722L33.3284 32.1588C32.742 32.4515 32.5043 33.1645 32.797 33.7509C33.0902 34.3373 33.8026 34.5755 34.389 34.2823L36.7623 33.0961C37.3487 32.8029 37.5864 32.09 37.2937 31.5036C37.0005 30.9172 36.2881 30.6795 35.7012 30.9722Z" fill="white"/>
</svg>
