<svg width="71" height="70" viewBox="0 0 71 70" fill="none" xmlns="http://www.w3.org/2000/svg">
<path d="M26.9167 70H69.4167C69.7482 70 70.0662 69.8683 70.3006 69.6339C70.535 69.3995 70.6667 69.0815 70.6667 68.75V41.25C70.6667 40.9185 70.535 40.6005 70.3006 40.3661C70.0662 40.1317 69.7482 40 69.4167 40H26.9167C26.5852 40 26.2672 40.1317 26.0328 40.3661C25.7984 40.6005 25.6667 40.9185 25.6667 41.25V68.75C25.6667 69.0815 25.7984 69.3995 26.0328 69.6339C26.2672 69.8683 26.5852 70 26.9167 70ZM55.6667 47.5C55.6667 47.1685 55.7984 46.8505 56.0328 46.6161C56.2672 46.3817 56.5852 46.25 56.9167 46.25C57.2482 46.25 57.5662 46.3817 57.8006 46.6161C58.035 46.8505 58.1667 47.1685 58.1667 47.5V61.25H64.4167C64.7482 61.25 65.0662 61.3817 65.3006 61.6161C65.535 61.8505 65.6667 62.1685 65.6667 62.5C65.6667 62.8315 65.535 63.1495 65.3006 63.3839C65.0662 63.6183 64.7482 63.75 64.4167 63.75H56.9167C56.5852 63.75 56.2672 63.6183 56.0328 63.3839C55.7984 63.1495 55.6667 62.8315 55.6667 62.5V47.5ZM43.1667 51.25C43.1667 49.9239 43.6935 48.6522 44.6312 47.7145C45.5688 46.7768 46.8406 46.25 48.1667 46.25C49.4928 46.25 50.7645 46.7768 51.7022 47.7145C52.6399 48.6522 53.1667 49.9239 53.1667 51.25V58.75C53.1623 59.6398 52.9174 60.5118 52.4579 61.2738L52.8004 61.6163C52.9198 61.7316 53.0151 61.8695 53.0806 62.022C53.1461 62.1745 53.1806 62.3385 53.182 62.5045C53.1834 62.6705 53.1518 62.8351 53.089 62.9887C53.0261 63.1423 52.9333 63.2819 52.8159 63.3992C52.6986 63.5166 52.559 63.6094 52.4054 63.6723C52.2518 63.7351 52.0872 63.7668 51.9212 63.7653C51.7552 63.7639 51.5912 63.7294 51.4387 63.6639C51.2862 63.5984 51.1482 63.5031 51.0329 63.3838L50.6904 63.0413C49.9285 63.5008 49.0565 63.7456 48.1667 63.75C46.8406 63.75 45.5688 63.2232 44.6312 62.2855C43.6935 61.3479 43.1667 60.0761 43.1667 58.75V51.25ZM35.6667 56.25C34.6778 56.25 33.7111 55.9568 32.8888 55.4074C32.0666 54.8579 31.4257 54.0771 31.0473 53.1634C30.6689 52.2498 30.5698 51.2445 30.7628 50.2746C30.9557 49.3046 31.4319 48.4137 32.1312 47.7145C32.8304 47.0152 33.7213 46.539 34.6912 46.3461C35.6611 46.1531 36.6665 46.2522 37.5801 46.6306C38.4937 47.009 39.2746 47.6499 39.824 48.4721C40.3734 49.2944 40.6667 50.2611 40.6667 51.25C40.6667 51.5815 40.535 51.8995 40.3006 52.1339C40.0662 52.3683 39.7482 52.5 39.4167 52.5C39.0852 52.5 38.7672 52.3683 38.5328 52.1339C38.2984 51.8995 38.1667 51.5815 38.1667 51.25C38.1667 50.7555 38.0201 50.2722 37.7454 49.8611C37.4707 49.45 37.0802 49.1295 36.6234 48.9403C36.1666 48.7511 35.6639 48.7016 35.179 48.798C34.694 48.8945 34.2486 49.1326 33.8989 49.4822C33.5493 49.8319 33.3112 50.2773 33.2147 50.7623C33.1183 51.2472 33.1678 51.7499 33.357 52.2067C33.5462 52.6635 33.8666 53.054 34.2778 53.3287C34.6889 53.6034 35.1722 53.75 35.6667 53.75C36.6556 53.75 37.6223 54.0432 38.4445 54.5927C39.2668 55.1421 39.9076 55.923 40.2861 56.8366C40.6645 57.7502 40.7635 58.7556 40.5706 59.7255C40.3777 60.6954 39.9015 61.5863 39.2022 62.2855C38.503 62.9848 37.612 63.461 36.6421 63.6539C35.6722 63.8469 34.6669 63.7478 33.7533 63.3694C32.8396 62.991 32.0587 62.3501 31.5093 61.5279C30.9599 60.7056 30.6667 59.7389 30.6667 58.75C30.6667 58.4185 30.7984 58.1005 31.0328 57.8661C31.2672 57.6317 31.5852 57.5 31.9167 57.5C32.2482 57.5 32.5662 57.6317 32.8006 57.8661C33.035 58.1005 33.1667 58.4185 33.1667 58.75C33.1667 59.2445 33.3133 59.7278 33.588 60.1389C33.8627 60.5501 34.2532 60.8705 34.71 61.0597C35.1668 61.2489 35.6695 61.2984 36.1544 61.202C36.6394 61.1055 37.0848 60.8674 37.4345 60.5178C37.7841 60.1681 38.0222 59.7227 38.1187 59.2377C38.2151 58.7528 38.1656 58.2501 37.9764 57.7933C37.7872 57.3365 37.4667 56.946 37.0556 56.6713C36.6445 56.3966 36.1611 56.25 35.6667 56.25Z" fill="white"/>
<path d="M23.1667 59.9524V47.4661C14.1879 47.2249 4.97044 45.6536 0.666687 42.6449V53.7499C0.666687 56.1474 9.20169 59.5699 23.1667 59.9524Z" fill="white"/>
<path d="M0.666687 38.75C0.666687 41.15 9.20169 44.575 23.1667 44.9562V41.25C23.1667 40.2554 23.5618 39.3016 24.265 38.5984C24.9683 37.8951 25.9221 37.5 26.9167 37.5H50.6667V26.375C46.0742 29.5875 35.8267 31.25 25.6667 31.25C15.5067 31.25 5.25919 29.5875 0.666687 26.375V38.75Z" fill="white"/>
<path d="M25.6667 12.5C39.4738 12.5 50.6667 9.70178 50.6667 6.25C50.6667 2.79822 39.4738 0 25.6667 0C11.8596 0 0.666687 2.79822 0.666687 6.25C0.666687 9.70178 11.8596 12.5 25.6667 12.5Z" fill="white"/>
<path d="M0.666687 22.5001C0.666687 25.0489 10.4054 28.7501 25.6667 28.7501C40.9279 28.7501 50.6667 25.0489 50.6667 22.5001V10.1251C46.0742 13.3376 35.8267 15.0001 25.6667 15.0001C15.5067 15.0001 5.25919 13.3376 0.666687 10.1251V22.5001Z" fill="white"/>
<path d="M48.1667 61.25C48.3828 61.2471 48.5976 61.2155 48.8054 61.1562L48.5329 60.8838C48.3052 60.648 48.1792 60.3322 48.1821 60.0045C48.1849 59.6768 48.3164 59.3632 48.5482 59.1315C48.7799 58.8997 49.0934 58.7683 49.4212 58.7654C49.7489 58.7626 50.0647 58.8886 50.3004 59.1162L50.5729 59.3888C50.6322 59.1809 50.6637 58.9661 50.6667 58.75V51.25C50.6667 50.587 50.4033 49.9511 49.9345 49.4822C49.4656 49.0134 48.8297 48.75 48.1667 48.75C47.5036 48.75 46.8678 49.0134 46.3989 49.4822C45.9301 49.9511 45.6667 50.587 45.6667 51.25V58.75C45.6667 59.413 45.9301 60.0489 46.3989 60.5178C46.8678 60.9866 47.5036 61.25 48.1667 61.25Z" fill="white"/>
</svg>
