<svg width="102" height="70" viewBox="0 0 102 70" fill="none" xmlns="http://www.w3.org/2000/svg">
<path d="M5.76813 18.0616H6.11233V22.3551H50.1522C49.8251 21.3962 49.7739 20.3648 50.0046 19.3783C50.2352 18.3917 50.7383 17.4898 51.4565 16.7754L57.308 10.942C57.8727 10.3712 58.5577 9.93356 59.313 9.66091C60.0682 9.38826 60.8748 9.28749 61.6739 9.36594V5.43478C61.6728 3.99373 61.0998 2.61203 60.0809 1.59305C59.0619 0.574075 57.6802 0.00112271 56.2391 0H5.76813C4.32802 0.00420106 2.94811 0.578141 1.9298 1.59645C0.911485 2.61476 0.337545 3.99468 0.333344 5.43478V12.6268C0.337545 14.0669 0.911485 15.4468 1.9298 16.4651C2.94811 17.4835 4.32802 18.0574 5.76813 18.0616ZM23.8478 7.21014C24.322 7.21964 24.7736 7.41469 25.1056 7.7534C25.4376 8.09212 25.6235 8.5475 25.6235 9.02179C25.6235 9.49608 25.4375 9.95145 25.1055 10.2901C24.7735 10.6288 24.3219 10.8239 23.8477 10.8333C23.3735 10.8238 22.922 10.6288 22.59 10.2901C22.258 9.95136 22.072 9.49597 22.0721 9.02169C22.0721 8.5474 22.258 8.09203 22.5901 7.75333C22.9221 7.41463 23.3736 7.21961 23.8478 7.21014ZM16.6015 7.21014C17.0756 7.21964 17.5272 7.41469 17.8592 7.7534C18.1912 8.09212 18.3771 8.5475 18.3771 9.02179C18.3771 9.49608 18.1911 9.95145 17.8591 10.2901C17.5271 10.6288 17.0755 10.8239 16.6014 10.8333C16.1272 10.8238 15.6756 10.6288 15.3436 10.2901C15.0116 9.95136 14.8257 9.49597 14.8257 9.02169C14.8257 8.5474 15.0117 8.09203 15.3437 7.75333C15.6757 7.41463 16.1273 7.21961 16.6015 7.21014ZM9.35508 7.21014C9.82927 7.21964 10.2808 7.41469 10.6128 7.7534C10.9448 8.09212 11.1308 8.5475 11.1308 9.02179C11.1307 9.49608 10.9448 9.95145 10.6128 10.2901C10.2807 10.6288 9.82917 10.8239 9.35497 10.8333C8.88078 10.8238 8.42922 10.6288 8.09723 10.2901C7.76524 9.95136 7.57929 9.49597 7.57931 9.02169C7.57932 8.5474 7.7653 8.09203 8.09731 7.75333C8.42932 7.41463 8.88089 7.21961 9.35508 7.21014Z" fill="white"/>
<path d="M57.308 59.0579C56.5216 58.1359 50.8791 52.9449 50.4964 51.9384H5.76813C4.32803 51.9426 2.94812 52.5165 1.92982 53.5348C0.91151 54.5531 0.337564 55.933 0.333344 57.3731V64.5652C0.337564 66.0053 0.91151 67.3852 1.92982 68.4035C2.94812 69.4218 4.32803 69.9957 5.76813 70H56.2391C57.6802 69.9988 59.0619 69.4258 60.0809 68.4069C61.0998 67.3879 61.6728 66.0062 61.6739 64.5652V60.634C60.8748 60.7125 60.0682 60.6117 59.3129 60.3391C58.5577 60.0664 57.8727 59.6287 57.308 59.0579ZM9.35508 62.7898C8.88089 62.7803 8.42933 62.5853 8.09734 62.2465C7.76535 61.9078 7.5794 61.4524 7.57941 60.9782C7.57943 60.5039 7.7654 60.0485 8.09742 59.7098C8.42943 59.3711 8.881 59.1761 9.35519 59.1666C9.82938 59.1761 10.2809 59.3712 10.6129 59.7099C10.9449 60.0486 11.1309 60.504 11.1309 60.9783C11.1308 61.4526 10.9449 61.9079 10.6129 62.2466C10.2808 62.5853 9.82927 62.7803 9.35508 62.7898ZM16.6015 62.7898C16.1273 62.7803 15.6757 62.5853 15.3437 62.2465C15.0117 61.9078 14.8258 61.4524 14.8258 60.9782C14.8258 60.5039 15.0118 60.0485 15.3438 59.7098C15.6758 59.3711 16.1274 59.1761 16.6016 59.1666C17.0758 59.1761 17.5273 59.3712 17.8593 59.7099C18.1913 60.0486 18.3773 60.504 18.3772 60.9783C18.3772 61.4526 18.1912 61.9079 17.8592 62.2466C17.5272 62.5853 17.0756 62.7803 16.6015 62.7898ZM23.8478 62.7898C23.3736 62.7803 22.9221 62.5853 22.5901 62.2465C22.2581 61.9078 22.0722 61.4524 22.0722 60.9782C22.0722 60.5039 22.2582 60.0485 22.5902 59.7098C22.9222 59.3711 23.3738 59.1761 23.8479 59.1666C24.3221 59.1761 24.7737 59.3712 25.1057 59.7099C25.4377 60.0486 25.6236 60.504 25.6236 60.9783C25.6236 61.4526 25.4376 61.9079 25.1056 62.2466C24.7736 62.5853 24.322 62.7803 23.8478 62.7898Z" fill="white"/>
<path d="M5.76813 44.0217H6.11233V48.3152H49.971C50.1555 47.4386 50.5468 46.6187 51.1123 45.9239L52.1087 44.7102L50.5145 44.5471C49.1708 44.4163 47.9243 43.7884 47.0195 42.7864C46.1146 41.7844 45.6167 40.4805 45.6232 39.1304V30.8696C45.6184 29.8504 45.9015 28.8506 46.44 27.9853C46.9784 27.1199 47.7503 26.4242 48.6667 25.9783H5.76813C4.32708 25.9794 2.94539 26.5524 1.92642 27.5713C0.907444 28.5903 0.334485 29.972 0.333344 31.4131V38.587C0.334466 40.028 0.907418 41.4097 1.92639 42.4287C2.94537 43.4477 4.32708 44.0206 5.76813 44.0217ZM23.8478 33.1884C24.322 33.1979 24.7736 33.393 25.1056 33.7317C25.4376 34.0704 25.6235 34.5258 25.6235 35.0001C25.6235 35.4743 25.4375 35.9297 25.1055 36.2684C24.7735 36.6071 24.3219 36.8021 23.8477 36.8116C23.3735 36.8021 22.922 36.6071 22.59 36.2683C22.258 35.9296 22.072 35.4742 22.0721 35C22.0721 34.5257 22.258 34.0703 22.5901 33.7316C22.9221 33.3929 23.3736 33.1979 23.8478 33.1884ZM16.6015 33.1884C17.0756 33.1979 17.5272 33.393 17.8592 33.7317C18.1912 34.0704 18.3771 34.5258 18.3771 35.0001C18.3771 35.4743 18.1911 35.9297 17.8591 36.2684C17.5271 36.6071 17.0755 36.8021 16.6014 36.8116C16.1272 36.8021 15.6756 36.6071 15.3436 36.2683C15.0116 35.9296 14.8257 35.4742 14.8257 35C14.8257 34.5257 15.0117 34.0703 15.3437 33.7316C15.6757 33.3929 16.1273 33.1979 16.6015 33.1884ZM9.35508 33.1884C9.82927 33.1979 10.2808 33.393 10.6128 33.7317C10.9448 34.0704 11.1308 34.5258 11.1308 35.0001C11.1307 35.4743 10.9448 35.9297 10.6128 36.2684C10.2807 36.6071 9.82917 36.8021 9.35497 36.8116C8.88078 36.8021 8.42922 36.6071 8.09723 36.2683C7.76524 35.9296 7.57929 35.4742 7.57931 35C7.57932 34.5257 7.7653 34.0703 8.09731 33.7316C8.42932 33.3929 8.88089 33.1979 9.35508 33.1884Z" fill="white"/>
<path d="M100.152 29.0579L95.9855 28.6413C95.5987 28.5729 95.2353 28.4081 94.9291 28.162C94.6229 27.9159 94.3838 27.5965 94.2339 27.2335C94.0839 26.8704 94.0281 26.4753 94.0714 26.0849C94.1148 25.6945 94.2559 25.3213 94.4819 25L97.1268 21.7753C97.4137 21.4296 97.5616 20.9894 97.5415 20.5405C97.5214 20.0917 97.3348 19.6665 97.0181 19.3478L91.1667 13.4963C90.848 13.1796 90.4227 12.993 89.9739 12.9729C89.5251 12.9528 89.0848 13.1007 88.7391 13.3876L85.4964 16.0326C85.1748 16.2524 84.8035 16.3886 84.416 16.4287C84.0285 16.4689 83.6372 16.4117 83.2774 16.2624C82.9176 16.1131 82.6008 15.8763 82.3556 15.5736C82.1104 15.271 81.9446 14.9119 81.8732 14.5289L81.4565 10.3623C81.4114 9.91387 81.2008 9.49837 80.8658 9.1969C80.5309 8.89542 80.0956 8.72961 79.6449 8.73183H71.384C70.9334 8.72961 70.4981 8.89542 70.1631 9.1969C69.8281 9.49837 69.6175 9.91387 69.5725 10.3623L69.1558 14.5289C69.0844 14.9119 68.9186 15.2709 68.6733 15.5736C68.4281 15.8763 68.1113 16.113 67.7515 16.2623C67.3917 16.4116 67.0004 16.4687 66.6129 16.4286C66.2255 16.3885 65.8541 16.2523 65.5326 16.0324L62.2898 13.3876C61.9441 13.1007 61.5039 12.9528 61.0551 12.9729C60.6062 12.993 60.181 13.1796 59.8623 13.4963L54.0109 19.3478C53.6942 19.6665 53.5076 20.0917 53.4875 20.5405C53.4674 20.9894 53.6152 21.4296 53.9022 21.7753L56.5471 25.0181C56.7675 25.3395 56.9042 25.7109 56.9446 26.0985C56.9851 26.4862 56.928 26.8778 56.7786 27.2377C56.6292 27.5977 56.3922 27.9147 56.0892 28.1598C55.7862 28.4049 55.4267 28.5704 55.0435 28.6413L50.8768 29.0579C50.4284 29.103 50.0129 29.3136 49.7114 29.6485C49.4099 29.9835 49.2441 30.4188 49.2464 30.8695V39.1304C49.2441 39.581 49.4099 40.0164 49.7114 40.3514C50.0129 40.6863 50.4284 40.8969 50.8768 40.942L55.0435 41.3586C55.4281 41.4307 55.7887 41.5977 56.0924 41.8444C56.3962 42.0911 56.6335 42.4098 56.7829 42.7715C56.9322 43.1332 56.9889 43.5265 56.9477 43.9156C56.9065 44.3048 56.7688 44.6775 56.5471 45L53.9022 48.2246C53.6152 48.5703 53.4674 49.0105 53.4875 49.4594C53.5076 49.9082 53.6942 50.3334 54.0109 50.6521L59.8623 56.5036C60.181 56.8203 60.6062 57.0068 61.0551 57.0269C61.5039 57.047 61.9441 56.8992 62.2898 56.6123L65.5326 53.9673C65.8542 53.7475 66.2255 53.6113 66.613 53.5712C67.0004 53.5311 67.3918 53.5882 67.7516 53.7376C68.1114 53.8869 68.4282 54.1236 68.6734 54.4263C68.9186 54.729 69.0844 55.0881 69.1558 55.4711L69.5725 59.6377C69.6175 60.0861 69.8281 60.5016 70.1631 60.8031C70.4981 61.1046 70.9334 61.2704 71.384 61.2682H79.6449C80.0956 61.2704 80.5309 61.1046 80.8658 60.8031C81.2008 60.5016 81.4114 60.0861 81.4565 59.6377L81.8732 55.4711C81.9328 55.0722 82.0989 54.6967 82.3539 54.3843C82.609 54.0718 82.9436 53.8339 83.3225 53.6957C83.6767 53.546 84.0642 53.4923 84.4458 53.54C84.8275 53.5877 85.1898 53.7351 85.4964 53.9673L88.7391 56.6122C89.0848 56.8992 89.5251 57.047 89.9739 57.0269C90.4227 57.0068 90.848 56.8202 91.1667 56.5036L97.0181 50.6521C97.3348 50.3334 97.5214 49.9082 97.5415 49.4593C97.5616 49.0105 97.4137 48.5703 97.1268 48.2246L94.4819 44.9818C94.2614 44.6604 94.1247 44.289 94.0843 43.9013C94.0439 43.5137 94.1009 43.1221 94.2503 42.7621C94.3997 42.4021 94.6367 42.0852 94.9398 41.8401C95.2428 41.595 95.6023 41.4295 95.9856 41.3586L100.152 40.942C100.601 40.8969 101.016 40.6863 101.318 40.3514C101.619 40.0164 101.785 39.581 101.783 39.1304V30.8695C101.785 30.4188 101.619 29.9835 101.318 29.6485C101.016 29.3136 100.601 29.103 100.152 29.0579ZM75.5145 44.0579C63.5423 43.6847 63.5451 26.3134 75.5147 25.942C87.4867 26.3152 87.4839 43.6865 75.5145 44.0579Z" fill="white"/>
</svg>
