<svg width="71" height="70" viewBox="0 0 71 70" fill="none" xmlns="http://www.w3.org/2000/svg">
<path d="M25.0794 61.7969V65.8984H18.9271C17.7936 65.8984 16.8763 66.8157 16.8763 67.9492C16.8763 69.0828 17.7936 70 18.9271 70H51.7396C52.8731 70 53.7904 69.0828 53.7904 67.9492C53.7904 66.8157 52.8731 65.8984 51.7396 65.8984H45.5872V61.7969H25.0794Z" fill="white"/>
<path d="M68.2826 8.33984H64.0443V43.2031C64.0443 46.5957 61.2845 49.3555 57.8919 49.3555H12.7747C9.38221 49.3555 6.62241 46.5957 6.62241 43.2031V8.33984H2.38412C1.25059 8.33984 0.333344 9.25709 0.333344 10.3906V55.6445C0.333344 56.7781 1.25059 57.6953 2.38412 57.6953H68.2826C69.4161 57.6953 70.3333 56.7781 70.3333 55.6445V10.3906C70.3333 9.25709 69.4161 8.33984 68.2826 8.33984Z" fill="white"/>
<path d="M59.9427 2.05078C59.9427 0.917246 59.0255 0 57.8919 0H12.7747C11.6412 0 10.724 0.917246 10.724 2.05078V16.543H59.9427V2.05078ZM18.9271 10.3906C17.7945 10.3906 16.8763 9.47242 16.8763 8.33984C16.8763 7.20699 17.7945 6.28906 18.9271 6.28906C20.0597 6.28906 20.9779 7.20699 20.9779 8.33984C20.9779 9.47242 20.0597 10.3906 18.9271 10.3906ZM27.1302 10.3906C25.9976 10.3906 25.0794 9.47242 25.0794 8.33984C25.0794 7.20699 25.9976 6.28906 27.1302 6.28906C28.2628 6.28906 29.181 7.20699 29.181 8.33984C29.181 9.47242 28.2628 10.3906 27.1302 10.3906ZM35.3333 10.3906C34.2008 10.3906 33.2826 9.47242 33.2826 8.33984C33.2826 7.20699 34.2008 6.28906 35.3333 6.28906C36.4659 6.28906 37.3841 7.20699 37.3841 8.33984C37.3841 9.47242 36.4659 10.3906 35.3333 10.3906Z" fill="white"/>
<path d="M12.7747 45.2539H57.8919C59.0255 45.2539 59.9427 44.3367 59.9427 43.2031V20.6445H10.724V43.2031C10.724 44.3367 11.6412 45.2539 12.7747 45.2539ZM42.3068 28.4371C41.4016 27.7581 41.2173 26.4724 41.8942 25.5672C42.5831 24.658 43.8688 24.4798 44.7661 25.1567L52.9692 31.309C53.4859 31.6955 53.7904 32.3043 53.7904 32.9492C53.7904 33.5941 53.4859 34.2029 52.9692 34.5894L44.7661 40.7418C43.8586 41.4225 42.5747 41.2372 41.8942 40.3312C41.2173 39.426 41.4015 38.1403 42.3068 37.4613L48.323 32.9492L42.3068 28.4371ZM31.336 38.4527L35.4375 26.148C35.802 25.0726 36.9675 24.4978 38.033 24.8522C39.1065 25.2086 39.6873 26.3703 39.3307 27.4457L35.2292 39.7504C34.871 40.8174 33.7151 41.4066 32.6337 41.0462C31.5602 40.6897 30.9794 39.5281 31.336 38.4527ZM17.6974 31.309L25.9006 25.1567C26.8058 24.4777 28.0875 24.658 28.7725 25.5672C29.4494 26.4724 29.2652 27.7581 28.3599 28.4371L22.3437 32.9492L28.3599 37.4613C29.2651 38.1403 29.4494 39.426 28.7725 40.3312C28.0914 41.2382 26.8069 41.4214 25.9006 40.7418L17.6974 34.5894C17.1808 34.2029 16.8763 33.5941 16.8763 32.9492C16.8763 32.3043 17.1808 31.6955 17.6974 31.309Z" fill="white"/>
</svg>
