<svg width="227" height="422" viewBox="0 0 227 422" fill="none" xmlns="http://www.w3.org/2000/svg">
<path d="M217.121 332.066H215.535V331.178H219.806V332.066H218.23V336.494H217.121V332.066ZM225.64 332.297H225.615L224.043 336.494H223.324L221.762 332.297H221.742V336.494H220.698V331.179H222.235L223.683 334.943L225.127 331.179H226.659V336.494H225.639L225.64 332.297Z" fill="white"/>
<path d="M75.1052 223.371C75.1052 223.371 64.0676 229.79 82.9602 231.962C105.848 234.573 117.546 234.198 142.768 229.424C142.768 229.424 149.4 233.582 158.661 237.184C102.118 261.417 30.6941 235.78 75.1052 223.371Z" fill="white"/>
<path d="M68.196 191.748C68.196 191.748 55.8163 200.912 74.7229 202.867C99.1724 205.39 118.481 205.596 151.892 199.163C151.892 199.163 156.513 203.848 163.779 206.41C95.4162 226.4 19.272 207.986 68.196 191.748Z" fill="white"/>
<path d="M126.442 138.106C140.374 154.146 122.782 168.58 122.782 168.58C122.782 168.58 158.158 150.318 141.911 127.45C126.738 106.123 115.101 95.5273 178.095 58.9931C178.095 58.9931 79.2156 83.6886 126.442 138.106Z" fill="#F8981D"/>
<path d="M201.224 246.761C201.224 246.761 209.392 253.491 192.229 258.698C159.592 268.584 56.3901 271.57 27.7211 259.091C17.4153 254.608 36.7415 248.386 42.8208 247.081C49.1609 245.706 52.7841 245.962 52.7841 245.962C41.323 237.888 -21.2955 261.815 20.9769 268.668C136.26 287.363 231.127 260.249 201.224 246.761Z" fill="white"/>
<path d="M80.413 158.983C80.413 158.983 27.918 171.452 61.8232 175.98C76.139 177.896 104.677 177.463 131.26 175.235C152.985 173.403 174.799 169.506 174.799 169.506C174.799 169.506 167.139 172.787 161.596 176.571C108.289 190.591 5.30807 184.069 34.9549 169.728C60.0272 157.609 80.413 158.983 80.413 158.983Z" fill="white"/>
<path d="M174.583 211.621C228.772 183.462 203.717 156.401 186.229 160.047C181.942 160.939 180.031 161.712 180.031 161.712C180.031 161.712 181.622 159.219 184.662 158.14C219.259 145.977 245.867 194.014 173.493 213.04C173.493 213.04 174.332 212.291 174.583 211.621Z" fill="white"/>
<path d="M141.911 0C141.911 0 171.922 30.0213 113.447 76.1855C66.5556 113.217 102.754 134.332 113.427 158.456C86.0562 133.76 65.9694 112.021 79.4452 91.7874C99.2245 62.0868 154.02 47.687 141.911 0Z" fill="#F8981D"/>
<path d="M85.7379 287.926C137.753 291.255 217.629 286.078 219.521 261.466C219.521 261.466 215.884 270.796 176.533 278.206C132.136 286.561 77.38 285.585 44.9033 280.231C44.9033 280.231 51.5517 285.733 85.7379 287.926Z" fill="white"/>
<path d="M77.2134 381.97C72.3065 386.226 67.124 388.615 62.4733 388.615C55.835 388.615 52.2485 384.635 52.2485 378.25C52.2485 371.344 56.0911 366.295 71.5077 366.295H77.2126L77.2134 381.97ZM90.753 397.246V349.959C90.753 337.879 83.8633 329.908 67.2517 329.908C57.5539 329.908 49.0589 332.302 42.1544 335.356L44.1474 343.727C49.5837 341.732 56.6205 339.874 63.5273 339.874C73.0967 339.874 77.2134 343.727 77.2134 351.692V357.669H72.4373C49.1874 357.669 38.6995 366.694 38.6995 380.241C38.6995 391.931 45.611 398.577 58.6244 398.577C66.9893 398.577 73.2337 395.123 79.0709 390.069L80.1304 397.247L90.753 397.246Z" fill="white"/>
<path d="M135.94 397.246H119.053L98.7295 331.105H113.477L126.088 371.743L128.891 383.964C135.271 366.294 139.783 348.367 142.04 331.105H156.385C152.542 352.885 145.625 376.791 135.94 397.246Z" fill="white"/>
<path d="M200.721 381.97C195.805 386.226 190.613 388.615 185.963 388.615C179.336 388.615 175.74 384.635 175.74 378.25C175.74 371.344 179.592 366.295 195.007 366.295H200.721V381.97ZM214.26 397.246V349.959C214.26 337.879 207.353 329.908 190.761 329.908C181.056 329.908 172.558 332.302 165.656 335.356L167.646 343.727C173.085 341.732 180.135 339.874 187.036 339.874C196.598 339.874 200.721 343.727 200.721 351.692V357.669H195.938C172.681 357.669 162.197 366.694 162.197 380.241C162.197 391.931 169.103 398.577 182.115 398.577C190.484 398.577 196.726 395.123 202.573 390.069L203.637 397.247L214.26 397.246Z" fill="white"/>
<path d="M23.8535 408.478C19.9937 414.114 13.7595 418.572 6.93436 421.095L0.24939 413.228C5.44431 410.562 9.89966 406.257 11.9697 402.247C13.7602 398.681 14.5014 394.085 14.5014 383.093V307.583H28.8865V382.058C28.8857 396.753 27.7109 402.689 23.8535 408.478Z" fill="white"/>
</svg>
