<svg width="246" height="64" viewBox="0 0 246 64" fill="none" xmlns="http://www.w3.org/2000/svg">
<path d="M81.3898 43.9135C80.6384 43.5078 80.0602 42.639 80.0602 41.4811C80.0602 39.9202 81.2742 38.6546 82.8988 38.6546C83.4742 38.6546 83.9972 38.8239 84.3993 39.0557C87.354 41.0245 90.4212 42.0087 93.1946 42.0087C96.2029 42.0087 97.9384 40.7343 97.9384 38.7067V38.5921C97.9384 36.2197 94.7004 35.4109 91.1102 34.3125C86.5998 33.0385 81.566 31.189 81.566 25.3442V25.227C81.566 19.4401 86.368 15.9119 92.4436 15.9119C95.6846 15.9119 99.0966 16.839 102.048 18.3989C103.034 18.9213 103.725 19.8474 103.725 21.0593C103.725 22.6811 102.454 23.8989 100.834 23.8989C100.252 23.8989 99.9056 23.7827 99.4477 23.5499C96.9556 22.2754 94.4108 21.4641 92.2706 21.4641C89.5493 21.4641 87.9868 22.7401 87.9868 24.477V24.5895C87.9868 26.8469 91.2846 27.7702 94.8732 28.9297C99.3284 30.3193 104.362 32.3431 104.362 37.8395V37.9567C104.362 44.3786 99.3837 47.5573 93.0206 47.5573C89.1466 47.5573 84.9226 46.3463 81.3898 43.9135Z" fill="#5FB832"/>
<path d="M131.485 31.765V31.6478C131.485 25.7488 127.491 21.8718 122.749 21.8718C118.005 21.8718 113.839 25.8062 113.839 31.6478V31.765C113.839 37.6087 118.005 41.5469 122.749 41.5469C127.551 41.5469 131.485 37.7833 131.485 31.765ZM107.01 19.439C107.01 17.4754 108.513 15.9109 110.484 15.9109C112.45 15.9109 114.012 17.4754 114.012 19.439V21.525C116.269 18.3442 119.45 15.7974 124.427 15.7974C131.601 15.7974 138.603 21.465 138.603 31.6478V31.765C138.603 41.8916 131.659 47.6182 124.427 47.6182C119.336 47.6182 116.153 45.0697 114.012 42.2406V53.0541C114.012 55.0286 112.45 56.5333 110.484 56.5333C108.576 56.5333 107.01 55.0286 107.01 53.0541V19.439Z" fill="#5FB832"/>
<path d="M141.255 19.4431C141.255 17.4796 142.755 15.915 144.723 15.915C146.695 15.915 148.255 17.4796 148.255 19.4431V21.1264C148.604 18.5046 152.881 15.915 155.949 15.915C158.147 15.915 159.421 17.3603 159.421 19.3843C159.421 21.2343 158.205 22.4515 156.643 22.74C151.667 23.6083 148.255 27.9624 148.255 33.9863V44.0802C148.255 45.9916 146.695 47.553 144.723 47.553C142.815 47.553 141.255 46.0478 141.255 44.0802V19.4431Z" fill="#5FB832"/>
<path d="M162.069 19.4572C162.069 17.4906 163.579 15.9259 165.543 15.9259C167.509 15.9259 169.072 17.4906 169.072 19.4572V44.0859C169.072 46.0504 167.509 47.553 165.543 47.553C163.632 47.553 162.069 46.0504 162.069 44.0859V19.4572Z" fill="#5FB832"/>
<path d="M172.601 19.4707C172.601 17.5041 174.107 15.9431 176.071 15.9431C178.04 15.9431 179.601 17.5041 179.601 19.4707V20.9073C181.572 18.0713 184.403 15.9254 189.147 15.9254C196.032 15.9254 200.027 20.5562 200.027 27.6141V44.0817C200.027 46.0478 198.52 47.5541 196.553 47.5541C194.587 47.5541 193.025 46.0478 193.025 44.0817V29.7557C193.025 25.0135 190.653 22.2921 186.487 22.2921C182.437 22.2921 179.601 25.127 179.601 29.875V44.0817C179.601 46.0478 178.04 47.5541 176.071 47.5541C174.163 47.5541 172.601 46.0478 172.601 44.0817V19.4707Z" fill="#5FB832"/>
<path d="M218.532 41.4827C213.725 41.4827 209.795 37.7207 209.795 31.7026V31.589C209.795 25.6884 213.784 21.8114 218.532 21.8114C223.277 21.8114 227.443 25.7468 227.443 31.589V31.7026C227.443 37.5478 223.277 41.4827 218.532 41.4827ZM230.792 15.8504C228.828 15.8504 227.265 17.416 227.265 19.3802V21.4624C225.007 18.2816 221.828 15.7363 216.855 15.7363C209.676 15.7363 202.677 21.404 202.677 31.589V31.7026C202.677 41.8291 209.619 47.554 216.855 47.554C221.916 47.554 225.091 45.0359 227.233 42.2207C226.883 47.7223 223.515 50.627 217.607 50.627C214.08 50.627 211.012 49.7562 208.231 48.1911C207.884 48.0218 207.485 47.9072 206.963 47.9072C205.343 47.9072 204.008 49.2395 204.008 50.7968C204.008 52.1286 204.761 53.1119 205.98 53.5749C209.677 55.3692 213.493 56.2952 217.777 56.2952C223.277 56.2952 227.56 54.9655 230.337 52.1869C232.877 49.639 234.267 45.825 234.267 40.6728V19.3802C234.267 17.416 232.763 15.8504 230.792 15.8504Z" fill="#5FB832"/>
<path d="M169.1 7.49529C169.1 9.44209 167.519 11.025 165.569 11.025C163.619 11.025 162.041 9.44209 162.041 7.49529C162.041 5.54316 163.619 3.96716 165.569 3.96716C167.519 3.96716 169.1 5.54316 169.1 7.49529Z" fill="#5FB832"/>
<path d="M57.9013 45.4619C50.1398 55.8031 33.5602 52.3124 22.9305 52.8145C22.9305 52.8145 21.0488 52.9192 19.1534 53.2312C19.1534 53.2312 19.8701 52.9255 20.7841 52.6104C28.2498 50.0286 31.778 49.5098 36.3144 47.1797C44.8378 42.8135 53.3206 33.303 55.0466 23.4234C51.8024 32.9254 41.9352 41.1035 32.9508 44.4245C26.8013 46.6937 15.6805 48.9021 15.6789 48.903C15.6841 48.9109 15.2357 48.6702 15.2294 48.665C7.66644 44.9854 7.44822 28.6051 21.1841 23.325C27.2065 21.0083 32.967 22.2807 39.4774 20.7311C46.4212 19.0802 54.4633 13.8754 57.7321 7.07073C61.3966 17.9401 65.7988 34.9453 57.9013 45.4619ZM58.0362 3.70259C57.1122 5.8978 55.9846 7.87593 54.6846 9.64526C48.9628 3.77286 40.9764 0.114063 32.1488 0.114063C14.7841 0.114063 0.65863 14.2411 0.65863 31.6026C0.65863 40.7041 4.54352 48.9125 10.7373 54.6661L11.4269 55.277C10.2753 54.338 10.0982 52.6468 11.0315 51.4942C11.9706 50.3411 13.6633 50.1624 14.8154 51.0963C15.9706 52.0322 16.1466 53.7275 15.2113 54.8822C14.2794 56.0374 12.5836 56.2119 11.43 55.2796L11.8993 55.6952C17.378 60.3083 24.4404 63.0947 32.1488 63.0947C48.7466 63.0947 62.3758 50.1781 63.5425 33.875C64.4065 25.8926 62.0488 15.7567 58.0362 3.70259Z" fill="#5FB832"/>
<path d="M242.465 18.0556H241.365V19.5119H242.465C242.821 19.5119 243.211 19.2244 243.211 18.801C243.211 18.3431 242.821 18.0556 242.465 18.0556ZM243.144 21.6608L242.076 20.0359H241.365V21.6608H240.791V17.5474H242.465C243.16 17.5474 243.804 18.0395 243.804 18.801C243.804 19.7144 242.989 20.0196 242.753 20.0196L243.855 21.6608H243.144ZM242.161 16.5488C240.468 16.5488 239.113 17.903 239.113 19.5968C239.113 21.2718 240.468 22.6436 242.161 22.6436C243.836 22.6436 245.208 21.2718 245.208 19.5968C245.208 17.903 243.836 16.5488 242.161 16.5488ZM242.161 23.1859C240.18 23.1859 238.572 21.577 238.572 19.5968C238.572 17.5978 240.18 16.0067 242.161 16.0067C244.159 16.0067 245.751 17.5978 245.751 19.5968C245.751 21.577 244.159 23.1859 242.161 23.1859Z" fill="#5FB832"/>
</svg>
